<?xml version="1.0" encoding="UTF-8" standalone="no"?>
<!-- Created with Inkscape (http://www.inkscape.org/) -->

<svg
   xmlns:dc="http://purl.org/dc/elements/1.1/"
   xmlns:cc="http://creativecommons.org/ns#"
   xmlns:rdf="http://www.w3.org/1999/02/22-rdf-syntax-ns#"
   xmlns:svg="http://www.w3.org/2000/svg"
   xmlns="http://www.w3.org/2000/svg"
   xmlns:xlink="http://www.w3.org/1999/xlink"
   xmlns:sodipodi="http://sodipodi.sourceforge.net/DTD/sodipodi-0.dtd"
   xmlns:inkscape="http://www.inkscape.org/namespaces/inkscape"
   width="18.559092mm"
   height="18.559092mm"
   viewBox="0 0 18.559091 18.559092"
   version="1.1"
   id="svg8"
   sodipodi:docname="plain-thicker-circular-black.svg"
   inkscape:version="0.92.4 5da689c313, 2019-01-14">
  <defs
     id="defs2">
    <linearGradient
       y2="28.426884"
       x1="34.76569"
       x2="25.431995"
       y1="9.9084301"
       id="lg"
       gradientTransform="scale(0.9319351,1.0730361)"
       gradientUnits="userSpaceOnUse">
      <stop
         id="stop66"
         offset="0"
         stop-opacity="0"
         stop-color="#fff" />
      <stop
         id="stop68"
         offset="1"
         stop-opacity=".27451"
         stop-color="#fff" />
    </linearGradient>
    <linearGradient
       inkscape:collect="always"
       xlink:href="#lg"
       id="linearGradient120"
       gradientUnits="userSpaceOnUse"
       gradientTransform="scale(0.9319351,1.0730361)"
       x1="34.76569"
       y1="9.9084301"
       x2="25.431995"
       y2="28.426884" />
    <linearGradient
       y2="28.426884"
       x1="34.76569"
       x2="25.431995"
       y1="9.9084301"
       id="lg-3"
       gradientTransform="scale(0.9319351,1.0730361)"
       gradientUnits="userSpaceOnUse">
      <stop
         id="stop4783"
         offset="0"
         stop-opacity="0"
         stop-color="#fff" />
      <stop
         id="stop4785"
         offset="1"
         stop-opacity=".27451"
         stop-color="#fff" />
    </linearGradient>
  </defs>
  <sodipodi:namedview
     id="base"
     pagecolor="#ffffff"
     bordercolor="#666666"
     borderopacity="1.0"
     inkscape:pageopacity="0.0"
     inkscape:pageshadow="2"
     inkscape:zoom="3.959798"
     inkscape:cx="62.59117"
     inkscape:cy="24.798457"
     inkscape:document-units="mm"
     inkscape:current-layer="g128"
     showgrid="false"
     inkscape:window-width="1306"
     inkscape:window-height="687"
     inkscape:window-x="29"
     inkscape:window-y="29"
     inkscape:window-maximized="0"
     fit-margin-top="0"
     fit-margin-left="0"
     fit-margin-right="0"
     fit-margin-bottom="0" />
  <metadata
     id="metadata5">
    <rdf:RDF>
      <cc:Work
         rdf:about="">
        <dc:format>image/svg+xml</dc:format>
        <dc:type
           rdf:resource="http://purl.org/dc/dcmitype/StillImage" />
        <dc:title></dc:title>
      </cc:Work>
    </rdf:RDF>
  </metadata>
  <g
     inkscape:label="Layer 1"
     inkscape:groupmode="layer"
     id="layer1"
     transform="translate(-18.628163,-62.112248)">
    <g
       id="g128"
       transform="matrix(0.26458333,0,0,0.26458333,60.872272,81.224015)">
      <circle
         style="fill:#000000;fill-opacity:1;fill-rule:evenodd;stroke:none;stroke-width:0.5669291;stroke-linecap:butt;stroke-linejoin:miter;stroke-miterlimit:10;stroke-dasharray:none;stroke-dashoffset:0;stroke-opacity:1;paint-order:stroke fill markers"
         id="path4882"
         cx="-124.59048"
         cy="-37.161152"
         r="35.0723" />
      <g
         id="g4880"
         transform="translate(-139.43557,-74.891733)">
        <rect
           transform="rotate(90)"
           y="-28.895815"
           x="35.077724"
           height="40.17857"
           width="5.3357162"
           id="rect4658"
           style="fill:#1793d1;fill-opacity:1;fill-rule:evenodd;stroke:none;stroke-width:0.08855794;stroke-linecap:butt;stroke-linejoin:miter;stroke-miterlimit:10;stroke-dasharray:none;stroke-dashoffset:0;stroke-opacity:1;paint-order:stroke fill markers" />
        <g
           transform="matrix(0,0.62611605,-0.62611605,0,44.537057,17.536461)"
           id="g4807">
          <path
             style="fill:#1793d1"
             inkscape:connector-curvature="0"
             d="m 32.253,0.20991 c -2.849,6.9843 -4.579,11.559 -7.75,18.336 1.944,2.061 4.334,4.453 8.211,7.164 -4.168,-1.715 -7.009,-3.432 -9.133,-5.219 -4.059,8.47 -10.423,20.531 -23.328,43.719 10.14,-5.854 18.002,-9.466 25.328,-10.844 -0.314,-1.351 -0.481,-2.819 -0.469,-4.344 l 0.008,-0.32 c 0.161,-6.498 3.542,-11.495 7.547,-11.156 4.004,0.339 7.122,5.884 6.961,12.383 -0.031,1.224 -0.173,2.4 -0.414,3.492 7.247,1.418 15.034,5.013 25.039,10.789 -1.973,-3.632 -3.74,-6.905 -5.422,-10.024 -2.649,-2.053 -5.411,-4.724 -11.047,-7.617 3.874,1.007 6.65,2.171 8.812,3.469 -17.098,-31.835 -18.48,-36.068 -24.343,-49.828 v -9e-5 z"
             id="path4790" />
          <path
             style="fill:#ffffff;fill-opacity:0.16567999"
             inkscape:connector-curvature="0"
             id="path2522"
             d="M 50.266,38.249 C 36.394,19.422 33.179,4.247 32.364,0.624 c 7.4,17.067 7.349,17.277 17.902,37.625 z" />
          <path
             inkscape:connector-curvature="0"
             d="m 32.378,0.45992 c -0.36,0.88448 -0.7,1.7468 -1.032,2.5625 -0.364,0.8946 -0.718,1.7565 -1.062,2.5938 -0.344,0.8373 -0.693,1.6309 -1.031,2.4375 -0.339,0.8065 -0.654,1.6039 -1,2.4063 -0.346,0.802 -0.726,1.613 -1.094,2.437 -0.368,0.825 -0.752,1.658 -1.156,2.532 -0.404,0.873 -0.828,1.801 -1.282,2.75 -0.061,0.128 -0.124,0.276 -0.187,0.406 1.939,2.054 4.33,4.427 8.187,7.125 -4.167,-1.715 -7,-3.432 -9.125,-5.219 -0.11,0.226 -0.198,0.425 -0.312,0.656 -0.42,0.871 -0.871,1.733 -1.344,2.688 -0.113,0.224 -0.196,0.427 -0.312,0.656 -0.501,1.004 -1.026,2.043 -1.594,3.156 -0.113,0.22 -0.228,0.402 -0.344,0.625 -0.343,0.667 -1.44,2.77 -2.562,4.907 -0.655,1.248 -1.169,2.27 -1.907,3.656 -0.209,0.398 -0.639,1.195 -0.75,1.406 8.125,-4.573 16.891,-11.216 32.813,-5.531 -0.797,-1.51 -1.562,-2.919 -2.25,-4.25 -0.688,-1.332 -1.312,-2.571 -1.906,-3.75 -0.594,-1.179 -1.143,-2.291 -1.657,-3.344 -0.513,-1.053 -0.989,-2.047 -1.437,-3 -0.448,-0.953 -0.885,-1.87 -1.281,-2.75 -0.397,-0.879 -0.766,-1.73 -1.125,-2.562 -0.359,-0.833 -0.695,-1.658 -1.032,-2.469 -0.336,-0.8115 -0.672,-1.5896 -1,-2.4063 -0.142,-0.3554 -0.263,-0.7338 -0.406,-1.0938 -0.888,-2.0849 -1.759,-4.1515 -2.812,-6.625 v 2e-5 z"
             id="path4793"
             style="fill:url(#lg-3)" />
        </g>
        <g
           transform="matrix(0,0.80824743,-0.80824743,0,56.593033,11.677179)"
           id="g4823">
          <g
             transform="matrix(0.73775824,0,0,0.73775824,8.4580857,19.945646)"
             id="g4849">
            <g
               transform="translate(0,4.3414043)"
               id="g4674">
              <path
                 id="path4672"
                 d="m 32.253,59.5652 c -1.275137,3.125988 -2.049439,5.173503 -3.468695,8.206709 0.870083,0.922449 1.939784,1.993046 3.675026,3.206418 -1.865486,-0.767589 -3.137043,-1.536073 -4.087689,-2.335887 -1.816701,3.790948 -4.66506,9.189133 -10.440997,19.56747 4.538396,-2.620096 8.05722,-4.236732 11.336144,-4.853488 -0.140538,-0.604672 -0.215283,-1.26171 -0.209912,-1.94426 l 0.0036,-0.143223 c 0.07206,-2.908334 1.585305,-5.144859 3.377837,-4.993131 1.792085,0.151727 3.18762,2.633523 3.11556,5.542303 -0.01387,0.547831 -0.07743,1.074177 -0.185295,1.562927 3.243566,0.63466 6.728821,2.243687 11.206795,4.828872 -0.883063,-1.625587 -1.673925,-3.090496 -2.426744,-4.486478 -1.185622,-0.918868 -2.421821,-2.114337 -4.944345,-3.409168 1.7339,0.450707 2.976364,0.971682 3.944018,1.552633 C 35.495671,67.618392 34.877124,65.723813 32.253,59.5652 v -4e-5 z"
                 inkscape:connector-curvature="0"
                 style="fill:#1793d1;stroke-width:0.4475736" />
            </g>
            <path
               style="fill:#1793d1;stroke-width:0.4475736"
               inkscape:connector-curvature="0"
               d="m 32.253,59.5652 c -1.275137,3.125988 -2.049439,5.173503 -3.468695,8.206709 0.870083,0.922449 1.939784,1.993046 3.675026,3.206418 -1.865486,-0.767589 -3.137043,-1.536073 -4.087689,-2.335887 -1.816701,3.790948 -4.66506,9.189133 -10.440997,19.56747 4.538396,-2.620096 8.05722,-4.236732 11.336144,-4.853488 -0.140538,-0.604672 -0.215283,-1.26171 -0.209912,-1.94426 l 0.0036,-0.143223 c 0.07206,-2.908334 1.585305,-5.144859 3.377837,-4.993131 1.792085,0.151727 3.18762,2.633523 3.11556,5.542303 -0.01387,0.547831 -0.07743,1.074177 -0.185295,1.562927 3.243566,0.63466 6.728821,2.243687 11.206795,4.828872 -0.883063,-1.625587 -1.673925,-3.090496 -2.426744,-4.486478 -1.185622,-0.918868 -2.421821,-2.114337 -4.944345,-3.409168 1.7339,0.450707 2.976364,0.971682 3.944018,1.552633 C 35.495671,67.618392 34.877124,65.723813 32.253,59.5652 v -4e-5 z"
               id="path4821" />
          </g>
        </g>
      </g>
    </g>
  </g>
</svg>
